<?xml version="1.0" standalone="no"?><!DOCTYPE svg PUBLIC "-//W3C//DTD SVG 1.1//EN" "http://www.w3.org/Graphics/SVG/1.1/DTD/svg11.dtd"><svg t="1763448209017" class="icon" viewBox="0 0 1142 1024" version="1.1" xmlns="http://www.w3.org/2000/svg" p-id="8371" xmlns:xlink="http://www.w3.org/1999/xlink" width="223.046875" height="200"><path d="M614.422721 315.82709s19.434026 33.414043 52.579983 25.859296c33.137167-7.563536 149.407313-43.860601 277.20515-25.859296 127.793442 18.0057 19.113202-54.056652 19.113202-54.056652s-18.071622-0.307639-59.743588-7.049339c-41.667571-6.746094-198.814215-31.023245-270.03715-7.053734C562.321777 271.64127 597.700318 285.2697 597.700318 285.2697l16.722403 30.552995z" fill="#F4BBA8" p-id="8372"></path><path d="M949.288301 261.788017s32.961373-6.974627 57.717562 2.417168C1031.757657 273.596979 1076.738945 317.453185 1076.738945 317.453185L1031.054481 377.957082l-40.885288-21.785271-28.852188-53.243605L949.288301 261.788017zM272.481434 385.204189s305.648618-135.783279 372.177854-142.920515c66.520446-7.141631 37.378197 55.476189 13.949253 71.987639-37.804498 26.663554-49.362953 15.153442-99.837802 47.11279-49.573906 31.388017-143.746747 91.096446-171.772704 97.666747-28.025957 6.5703-97.816172-2.382009-97.816172-2.382009L272.481434 385.204189z" fill="#F4BBA8" p-id="8373"></path><path d="M747.125211 942.888652s38.512069-226.088652 69.078249-277.279862c30.570575-51.186815 105.841167-163.084086 104.808377-186.447108-1.028395-23.354232-27.05909-51.041785-16.669665-64.538369 10.389425-13.487794 35.554335-16.915777 57.168206-31.071588 21.609476-14.160206 45.816309-44.207794 57.168206-62.14757 11.356292-17.944172 50.048549-33.607416 71.460258-31.071588 21.411708 2.527039 54.755433-3.480721 52.404188 11.949596-2.342455 15.425923-26.421837 19.596635-45.253768 45.411983-16.876223 23.130094-64.516395 105.599451-94.392584 148.985408-34.455622 50.013391-116.467914 281.973562-124.760995 374.498334-8.288687 92.529167-131.010472 71.710764-131.010472 71.710764" fill="#FFD3CE" p-id="8374"></path><path d="M446.099975 444.367657c8.556773-35.919107-17.821116-36.477253-17.821116-36.477254s-23.929957-16.68285-27.617236 22.141254c-3.638936 38.292326 36.279485 52.782146 45.438352 14.336m384.325218 447.997802c-4.794781-47.903863-126.518936-280.72103-126.518935-280.72103s23.380601 187.730403 67.772978 271.65885c0 0-135.75691 79.713785-415.695656-4.526695 0 0 195.109356 143.096309 239.479759 144.889407 160.183485 6.482403 239.75224-83.39667 234.961854-131.300532" fill="#FC8D1F" p-id="8375"></path><path d="M452.670275 290.060086s-33.387674 40.709494-95.429768 35.374146C302.041193 324.735451 285.665983 313.638455 285.665983 313.638455l7.163605 120.265064s60.319313-31.203433 102.584584-4.715674c42.256481 26.496549 47.714884-44.805494 47.714884-44.805493L452.670275 290.060086z" fill="#FFAC88" p-id="8376"></path><path d="M440.483357 302.172292c-6.460429 7.62067-33.080034 33.05806-42.955262 94.858438-21.117253 24.316704-27.797425 34.987399-28.636841 37.945133-9.914781 35.171983-23.675056 91.87873 40.458987 120.572704 54.759828 24.496893 139.373871 10.459742 160.003296-51.7977 19.798798-59.747983-11.523296-76.35612-26.246043-109.093356-4.649751-10.319107-2.280927-24.87485-2.390798-37.940738-3.564223-6.196738 1.568961-8.7897-17.478318-4.500327-6.086867-6.130815-10.547639-19.0297-17.302524-27.327176-10.354266-12.7143-26.571262-9.760961-29.652051-27.459021-9.172052-8.741356-21.169991-12.481373-35.800446 4.746438" fill="#FFD3CE" p-id="8377"></path><path d="M253.671477 497.936481s56.548532 39.571227 92.348978-4.746438c35.796052-44.33085 54.773013-108.267124 28.417099-195.096172-5.757253-18.963777-18.946197-226.01394-18.946197-226.01394S332.088781-5.550695 310.496884 5.467193c-21.587502 11.013494-31.765974 44.691227-35.514781 73.74558-3.748807 29.063142-17.966146 165.918764-11.84412 256.949287 3.801545 56.508979-20.594266 83.590043-16.577373 109.436155 4.025682 25.850506 7.106472 52.342661 7.106472 52.342661" fill="#FFD3CE" p-id="8378"></path><path d="M306.102035 30.517837s15.20618 87.347639 45.310901 95.623142c30.104721 8.279897 100.901356 49.899124 126.3783 78.891948 25.481339 28.988429 34.657785 50.839622 47.688515 57.370369 13.039519 6.535142 37.813288-12.920858 40.54249-33.466781 2.724807-20.545923-0.026369-19.442815-16.696035-31.075983-16.66527-11.633167-49.916704-47.917047-76.303382-78.887553-26.386678-30.970506-83.251639-68.977167-107.304652-88.455142-24.048618-19.473579-47.038077-41.926867-57.229734-23.899193-10.191657 18.018884-2.386403 23.899193-2.386403 23.899193" fill="#FFD3CE" p-id="8379"></path><path d="M509.803322 228.646455s7.537167 27.388704 25.964773 43.460669c18.432 16.063176 15.258918 53.740223 33.04927 53.10297 17.790352-0.632858 49.569511-2.417167 49.569511-2.417167s31.388017-69.271622 21.244704-84.490987c-10.152103-15.21497-11.307948-9.686249-30.689236-16.898198-19.381288-7.198764-33.620601-16.854249-51.929545-14.476635-18.313339 2.373219-47.209476 21.719348-47.209477 21.719348" fill="#FFD3CE" p-id="8380"></path><path d="M558.14667 303.244635s9.189631 28.276464 27.142592 32.381253c17.952961 4.10479 27.142592 11.567245 27.142592 11.567245s14.498609-7.075708 2.469906-16.195021c-12.033099-9.114918-24.677082-20.814009-24.677082-20.814009L558.14667 303.244635zM593.705399 293.048584s14.546953 22.774112 31.185855 34.455622c16.643296 11.681511 38.384618 19.688927 38.384618 19.688927s14.195365-8.978678 7.198764-22.150043c-7.000996-13.171365-52.777751-36.916738-52.777752-36.916738L588.910618 285.665236l4.794781 7.383348z" fill="#FFD3CE" p-id="8381"></path><path d="M606.490018 268.42424s1.261322 19.205494 9.536824 23.670661C624.306739 296.551279 668.501348 325.218884 668.501348 325.218884s6.891124-12.498953 2.382009-21.293047C666.369846 295.127348 618.41764 263.690987 618.41764 263.690987L606.490018 268.42424zM624.069417 246.111588l2.417167 19.179124 43.509013 33.559073 2.417167-21.578712-31.423176-21.574318z" fill="#FFD3CE" p-id="8382"></path><path d="M996.313193 355.982833c-10.196052 11.351897-21.64024 22.207176-32.442781 29.186197-1.261322 0.817442-2.535828 1.586541-3.814729 2.32927 3.551039 14.92491 6.535142 37.391382 1.116292 61.198284-4.988155 21.917116-22.699399 30.825476-38.384618 34.350146-3.691674 27.907296-75.91224 133.976996-105.819194 183.366317C786.06358 717.459227 747.125211 942.893047 747.125211 942.893047s124.075399 20.76127 132.460772-71.504206c8.376584-92.261082 91.294215-323.544446 126.123399-373.417202 11.6903-16.726798 26.05267-39.285562 40.265614-61.989356-29.010403-17.667296-43.46067-57.014386-49.661803-79.99945" fill="#3F3F3F" p-id="8383"></path><path d="M626.521743 228.532189s28.127039 20.229494 34.336961 31.159485c6.218712 10.938781 0 21.578712 0 21.578712L624.069417 257.296481l2.452326-28.764292zM603.33891 303.429219s11.6903 73.543416-4.785991 99.982833c-16.476292 26.435021-24.510077 33.576652-35.905923 52.36903-11.395845 18.801167-18.44079 39.601991 21.543554 52.373424 39.984343 12.767039 45.882232 19.346129 59.844669 64.270284 13.958043 44.932944 74.998112 280.896824 119.68055 304.712515C808.402601 900.944206 909.734653 900.944206 909.734653 900.944206s-7.119657-51.428532-23.943142-69.038695c-16.814695-17.605768-89.426403-157.511416-114.890163-204.720893-25.468155-47.218266-73.024824-138.042232-78.99303-178.545167-5.963811-40.502936-30.763948-92.388532-35.905923-121.403331-5.141974-29.019193-11.967176-52.373425-11.967176-52.373425L610.520095 272.480687l-7.181185 30.948532z" fill="#FFD3CE" p-id="8384"></path><path d="M931.708902 296.775416s27.832584 31.502283 32.996532 48.593854c5.172738 17.087176 15.522609 33.884292 25.934008 36.44649 10.407004 2.562197 37.707811-4.860704 37.707812-4.860704s1.889785-17.821116-18.853906-14.573322c-11.940807-10.578403-16.502661-17.012464-16.502661-17.012464s6.987811-16.24776 0-43.73315C987.822344 281.287966 938.78461 272.480687 938.78461 272.480687L931.708902 296.775416z" fill="#F4BBA8" p-id="8385"></path><path d="M1024.000747 360.00412s25.828532 46.585408 39.417408 44.234163c13.588876-2.34685 18.282575-0.395536 6.957047-19.662558-11.321133-19.262627-27.819399-41.777442-27.819399-41.777442L1024.000747 360.00412zM1041.580146 326.256069s25.195674 50.514403 35.132429 51.613116c9.936755 1.103107 20.062489-8.407348 7.03176-22.119279-13.039519-13.711931-30.456309-39.320721-30.456309-39.320721L1041.580146 326.256069zM1070.687236 307.639485s34.974215 32.908635 32.271382 42.652017c-2.698438 9.730197-5.071657 15.654455-18.436394 2.373219-13.373528-13.298815-25.362678-30.807897-25.362679-30.807897L1070.687236 307.639485z" fill="#F4BBA8" p-id="8386"></path><path d="M377.957829 325.218884s-122.73497 11.813356-184.803434 50.430901c-31.383622 5.251845-37.272721-2.382009-98.268841 19.086833-52.6503 18.528687-59.910592 124.053425-59.910592 124.053425S23.306636 582.370335 6.215065 616.597425c-17.095966 34.222695 3.076395 126.773837 36.13885 159.43636 9.484086 31.260567 45.161476 81.269562 74.105957 102.980121 20.33497 20.919485 41.219296 52.426163 51.362609 47.851124 71.038352-32.012086 118.797185-210.07382 118.797185-210.07382s-33.181116-11.303554-57.5154-16.696034c-8.424927-16.928961-11.356292-45.719622-9.589562-71.570129 19.350524-21.288652 37.971502-48.593854 45.535039-85.884154 45.807519-16.427948 103.054833-35.782867 103.054832-35.782867L377.957829 325.218884z" fill="#FFD3CE" p-id="8387"></path><path d="M259.705605 342.798283s0.109871 0.900944 0.158215 3.981734c-34.024927 15.487451-117.856687 56.627639-115.786712 122.616309 1.990867 63.615451 124.233614 64.270283 166.16048 54.175313 3.458747-0.835021 37.553991-12.854936 40.24364-13.131811 6.407691-0.676807 5.027708 5.722094 5.027708 5.722095 6.557116-0.87897-56.790249 41.632412-78.254695 61.374077-16.318077 15.017202-42.928893 38.604361-49.187159 55.660773-6.258266 17.052017-3.357665 38.824103-2.34685 45.223004 1.002026 6.390112 1.674438 7.607485-2.351245 7.058129C187.797073 680.608412 4.013245 641.683227 0.000747 627.562575c6.042918-26.909665 17.10915-61.57624 27.010747-85.86218 2.32927-29.507021 9.774146-112.05109 31.515468-135.572326C80.272678 382.606833 259.705605 342.798283 259.705605 342.798283" fill="#FFB127" p-id="8388"></path><path d="M125.759374 886.999348s-5.229871-49.701356 31.620944-109.871245c25.564841-41.751073 81.590386-76.927451 81.590386-76.927451s66.920378-0.14503 125.196086 21.429288c39.949185 14.793064 82.671519 48.927863 82.702283 91.575485l303.064447 54.12697s-24.663897-19.346129-46.093185-75.899056c-22.721373-59.98091-43.082712-196.985957-66.990695-235.313442-19.192309-30.772738-31.660498-40.595227-31.660498-40.595227s38.63073-57.524189-13.571296-94.717803L605.189142 375.706918l90.467983 54.122576s-0.083502 28.254489 13.566901 63.145201c13.650403 34.895107 180.962335 344.222215 203.547468 383.375932 22.589528 39.158112 45.807519 97.794197-72.374386 130.799519-118.177511 33.009717-453.016721 9.791725-529.223417-4.513511C180.514807 978.117768 125.759374 886.999348 125.759374 886.999348" fill="#494949" p-id="8389"></path><path d="M581.149314 487.43279c-20.734901-11.725459-11.501322 16.744378-28.913717-14.239314-17.41679-30.979296-31.581391-28.386335-50.597906-23.732188-19.02091 4.658541-38.63073-22.659845-45.78115-42.704756-7.150421-20.040515-14.459056-7.119657-14.459056-7.119656l7.229528 35.589493s-39.861288 16.687245-48.189528 0c-8.32824-16.68285-21.684189-18.981356-21.684189-18.981356s-28.417099 73.789528-31.330884 102.030832c-8.394163 81.445356 26.474575 67.412601 48.198318 121.012189 16.678455 41.157768-71.135039 46.620567-74.694867 111.519314-3.937785 71.785476 108.675845 80.271931 183.120206 73.552206 0 0-25.569236-8.231554-46.058026-24.747399-18.097991-14.590901-36.578335-41.544515 0.276876-53.551245 73.912584-24.083777 159.594575-21.095279 146.981356-94.911176-8.701803-50.931914 14.063519-90.511931-24.096961-163.721339" fill="#272A44" p-id="8390"></path></svg>