<?xml version="1.0" standalone="no"?><!DOCTYPE svg PUBLIC "-//W3C//DTD SVG 1.1//EN" "http://www.w3.org/Graphics/SVG/1.1/DTD/svg11.dtd"><svg t="1763447835434" class="icon" viewBox="0 0 1024 1024" version="1.1" xmlns="http://www.w3.org/2000/svg" p-id="2270" id="mx_n_1763447835435" xmlns:xlink="http://www.w3.org/1999/xlink" width="200" height="200"><path d="M511.997008 511.997473m-511.635764 0a511.635763 511.635763 0 1 0 1023.271527 0 511.635763 511.635763 0 1 0-1023.271527 0Z" fill="#040000" p-id="2271"></path><path d="M511.99773 1023.994224c-69.119031 0-136.170324-13.537038-199.292628-40.234963-60.968651-25.787515-115.723261-62.70428-162.744792-109.72509C102.9395 827.013361 66.022735 772.258752 40.23522 711.290101 13.537294 648.168519 0.000257 581.115782 0.000257 511.997473s13.537038-136.171046 40.234963-199.292628c25.787515-60.967929 62.70428-115.723261 109.72509-162.74407C196.981119 102.939965 251.736451 66.023201 312.705102 40.235685 375.826684 13.537038 442.878699 0 511.99773 0 581.116761 0 648.168054 13.537038 711.290358 40.234963c60.967929 25.787515 115.723261 62.70428 162.743348 109.72509 47.02081 47.02081 83.938296 101.776141 109.725089 162.74407 26.697926 63.121582 40.234963 130.173597 40.234964 199.292628s-13.537038 136.171046-40.234964 199.292628c-25.787515 60.968651-62.705002 115.723261-109.725089 162.74407-47.020088 47.021532-101.775419 83.938296-162.743348 109.72509-63.122304 26.698648-130.173597 40.235685-199.292628 40.235685zM511.99773 0.721975C230.079357 0.721975 0.722232 230.0791 0.722232 511.997473s229.357125 511.275498 511.275498 511.275498 511.274776-229.357125 511.274776-511.275498S793.915381 0.721975 511.99773 0.721975z" p-id="2272"></path><path d="M516.097828 298.893457c52.827657 0 95.789522-42.966196 95.789521-95.772916-0.015161-52.808164-42.996519-95.775082-95.789521-95.775082-52.807442 0-95.773638 42.966918-95.773638 95.775082 0 52.80672 42.966196 95.772916 95.773638 95.772916z m0-157.801427c34.217299 0 62.013349 27.827095 62.013349 62.012628 0 34.201416-27.780167 62.009018-62.013349 62.009017-34.201416 0-62.013349-27.827817-62.01335-62.009017 0-34.185532 27.811934-62.012628 62.01335-62.012628z m0 0M752.753401 844.040428L592.134826 612.022102V500.217724l30.390108 30.392995a15.863242 15.863242 0 0 0 4.38239 3.168028l47.042469 23.529898c6.708595 3.355019 14.024371 5.071877 21.373358 5.071877 6.219818 0 12.407868-1.194869 18.237097-3.656805 12.846829-5.292079 22.658474-15.874072 27.056026-29.008247 7.399525-22.418056-2.831587-47.278555-23.934205-57.864879l-50.956297-25.450353-76.40665-114.620804c-0.336441-0.490221-0.826662-0.740747-1.181151-1.179708-0.706092-0.876478-1.46561-1.617225-2.341366-2.342088-0.875756-0.710424-1.751512-1.315439-2.731233-1.836705-0.890918-0.490221-1.80205-0.843989-2.797654-1.145775a17.177959 17.177959 0 0 0-3.456096-0.710424c-0.540038-0.049094-1.010043-0.319835-1.550803-0.319835H456.916788a16.864622 16.864622 0 0 0-10.802195 3.912384l-118.346919 98.621831a16.770043 16.770043 0 0 0-4.278426 5.428533l-48.934045 97.865201c-9.826084 19.587191-1.835983 43.537279 17.79958 53.398017 17.936755 9.000145 41.616824 2.071347 51.897031-15.119607l45.749411-76.206663 50.060326-25.029441v147.488732l-34.741453 104.186095H308.990539c-25.601967 0-46.454059 20.817437-46.454059 46.454059s20.83332 46.503875 46.454059 46.503875h167.647727c5.308685 0 10.331467-2.542075 13.484333-6.790178l49.710168-66.230407 140.221328 161.799004c8.730848 10.117762 21.423896 15.895731 34.791269 15.895731 12.337115 0 23.934204-4.767925 32.595021-13.517544 15.779493-15.744116 18.021948-40.488377 5.313016-58.864093zM646.628081 474.616478l54.965426 27.437229c6.137512 3.102328 9.18858 10.402221 6.964174 16.960644-1.756566 5.258146-5.699273 7.56558-7.90563 8.475269-2.155818 0.996326-6.642895 2.090841-11.59709-0.384091l-44.60147-22.285213-52.317943-52.302059v-55.609428l48.020746 71.990326c1.599897 2.430169 3.891447 4.401884 6.471787 5.717323z m-178.418877 303.352377H308.990539c-7.009659 0-12.692326-5.697829-12.692326-12.711098 0-7.009659 5.682668-12.688717 12.692326-12.688716h108.481848c7.268126 0 13.723307-4.687786 16.014135-11.566767l30.089044-90.245473 53.633382 61.876896-48.999744 65.335158z m255.397331 101.081601c-2.341366 2.327648-5.424201 3.608433-8.761171 3.608433-2.110334 0-6.088418-0.555921-9.325755-4.263265L473.806679 611.011337l-0.015884-171.255438c0-5.863884-3.050346-11.291694-8.00815-14.359367-4.972966-3.066951-11.192062-3.355741-16.415554-0.740747L370.483344 464.114625c-2.885735 1.431677-5.27764 3.672689-6.929519 6.419805L315.279666 550.95454c-2.021531 3.386786-5.527443 3.456096-7.838486 2.339922-2.967319-1.464888-4.179515-5.137576-2.6973-8.089011l47.36447-94.694285 110.928622-92.437391H558.390421v259.240406c0 3.421441 1.061304 6.775739 3.001973 9.607326l163.651594 236.319133c3.385342 4.954917 2.779605 11.597812-1.437453 15.809816z m0 0" fill="#FFFFFF" p-id="2273"></path></svg>